<svg id="icon.contrasena" xmlns="http://www.w3.org/2000/svg" xmlns:xlink="http://www.w3.org/1999/xlink" width="31.916" height="17.01" viewBox="0 0 31.916 17.01">
  <defs>
    <clipPath id="clip-path">
      <rect id="Rectángulo_19" data-name="Rectángulo 19" width="31.916" height="17.01" fill="#f2357b"/>
    </clipPath>
  </defs>
  <g id="Grupo_11" data-name="Grupo 11" transform="translate(0 0)" clip-path="url(#clip-path)">
    <path id="Trazado_8" data-name="Trazado 8" d="M2.9,14.108H29.015a1.451,1.451,0,1,1,0,2.9H2.9a1.451,1.451,0,1,1,0-2.9M4.352,6.057,3.663,7.29A.99.99,0,0,1,3.01,7.8a1.118,1.118,0,0,1-.834-.109.99.99,0,0,1-.508-.653A1.118,1.118,0,0,1,1.777,6.2l.689-1.233H1.088A1.052,1.052,0,0,1,0,3.881,1.054,1.054,0,0,1,1.088,2.793H2.466L1.777,1.632A1.118,1.118,0,0,1,1.668.8.99.99,0,0,1,2.176.145,1.118,1.118,0,0,1,3.01.036a.99.99,0,0,1,.653.508L4.352,1.7,5.041.544A.99.99,0,0,1,5.694.036a1.118,1.118,0,0,1,.834.109A.99.99,0,0,1,7.036.8a1.118,1.118,0,0,1-.109.834L6.238,2.793H7.616A1.054,1.054,0,0,1,8.7,3.881,1.052,1.052,0,0,1,7.616,4.969H6.238L6.927,6.2a1.118,1.118,0,0,1,.109.834.99.99,0,0,1-.508.653,1.118,1.118,0,0,1-.834.109.99.99,0,0,1-.653-.508Zm11.606,0L15.269,7.29a.99.99,0,0,1-.653.508,1.118,1.118,0,0,1-.834-.109.99.99,0,0,1-.508-.653,1.118,1.118,0,0,1,.109-.834l.689-1.233H12.694a1.052,1.052,0,0,1-1.088-1.088,1.054,1.054,0,0,1,1.088-1.088h1.378l-.689-1.161A1.118,1.118,0,0,1,13.274.8a.99.99,0,0,1,.508-.653,1.118,1.118,0,0,1,.834-.109.99.99,0,0,1,.653.508L15.958,1.7,16.647.544A.99.99,0,0,1,17.3.036a1.118,1.118,0,0,1,.834.109A.99.99,0,0,1,18.642.8a1.118,1.118,0,0,1-.109.834l-.689,1.161h1.378A1.054,1.054,0,0,1,20.31,3.881a1.052,1.052,0,0,1-1.088,1.088H17.844L18.533,6.2a1.118,1.118,0,0,1,.109.834.99.99,0,0,1-.508.653A1.118,1.118,0,0,1,17.3,7.8a.99.99,0,0,1-.653-.508Zm11.606,0L26.875,7.29a.99.99,0,0,1-.653.508,1.118,1.118,0,0,1-.834-.109.99.99,0,0,1-.508-.653,1.118,1.118,0,0,1,.109-.834l.689-1.233H24.3a1.052,1.052,0,0,1-1.088-1.088A1.054,1.054,0,0,1,24.3,2.793h1.378l-.689-1.161A1.118,1.118,0,0,1,24.88.8a.99.99,0,0,1,.508-.653,1.118,1.118,0,0,1,.834-.109.99.99,0,0,1,.653.508L27.564,1.7,28.253.544a.99.99,0,0,1,.653-.508,1.118,1.118,0,0,1,.834.109A.99.99,0,0,1,30.248.8a1.118,1.118,0,0,1-.109.834L29.45,2.793h1.378a1.054,1.054,0,0,1,1.088,1.088,1.052,1.052,0,0,1-1.088,1.088H29.45L30.139,6.2a1.118,1.118,0,0,1,.109.834.99.99,0,0,1-.508.653,1.118,1.118,0,0,1-.834.109.99.99,0,0,1-.653-.508Z" transform="translate(0 0)" fill="#f2357b"/>
  </g>
</svg>
