<svg xmlns="http://www.w3.org/2000/svg" width="144.919" height="96.613" viewBox="0 0 144.919 96.613">
  <path id="ojo" d="M144.044,49.133C130.4,22.512,103.388,4.5,72.459,4.5S14.512,22.524.875,49.136a8.139,8.139,0,0,0,0,7.344C14.519,83.1,41.531,101.113,72.459,101.113s57.948-18.024,71.584-44.636A8.139,8.139,0,0,0,144.044,49.133Zm-71.584,39.9a36.23,36.23,0,1,1,36.23-36.23A36.23,36.23,0,0,1,72.459,89.036Zm0-60.383a23.979,23.979,0,0,0-6.368.954A12.039,12.039,0,0,1,49.26,46.439a24.1,24.1,0,1,0,23.2-17.785Z" transform="translate(0 -4.5)" fill="#fefcf8"/>
</svg>
