<svg id="icon-perfil-login" xmlns="http://www.w3.org/2000/svg" xmlns:xlink="http://www.w3.org/1999/xlink" width="79.483" height="79.417" viewBox="0 0 79.483 79.417">
  <defs>
    <clipPath id="clip-path">
      <rect id="Rectángulo_10" data-name="Rectángulo 10" width="79.483" height="79.417" fill="#fefcf8"/>
    </clipPath>
  </defs>
  <g id="Grupo_6" data-name="Grupo 6" transform="translate(0 0)" clip-path="url(#clip-path)">
    <path id="Trazado_4" data-name="Trazado 4" d="M39.742,76.14a29.4,29.4,0,0,1-3.807-.248q-1.9-.248-3.807-.662a20.111,20.111,0,0,1-16.016,3.85A18.7,18.7,0,0,1,2.748,69.767a18.073,18.073,0,0,1-2.4-13.159A21.363,21.363,0,0,1,6.72,44.774v-.248A20.253,20.253,0,0,1,.348,32.9,18.618,18.618,0,0,1,2.665,19.863a19.966,19.966,0,0,1,8.442-7.905A18.97,18.97,0,0,1,22.445,10.1,19.627,19.627,0,0,1,39.742,0a19.627,19.627,0,0,1,17.3,10.1,18.97,18.97,0,0,1,11.338,1.86,19.966,19.966,0,0,1,8.442,7.905A18.618,18.618,0,0,1,79.136,32.9a20.253,20.253,0,0,1-6.373,11.63v.248a21.363,21.363,0,0,1,6.373,11.835,18.073,18.073,0,0,1-2.4,13.159,18.7,18.7,0,0,1-13.364,9.312,20.111,20.111,0,0,1-16.016-3.85q-1.9.412-3.807.662a29.4,29.4,0,0,1-3.807.248M23.852,72A36.107,36.107,0,0,1,18.8,68.566a33.582,33.582,0,0,1-4.386-4.261A32.161,32.161,0,0,1,10.9,59.3a32.748,32.748,0,0,1-2.523-5.585A12.858,12.858,0,0,0,6.72,60.045a11.932,11.932,0,0,0,1.738,6.247A13.319,13.319,0,0,0,15.2,71.959a11.582,11.582,0,0,0,8.65.043m31.78,0a11.573,11.573,0,0,0,8.647-.043,13.326,13.326,0,0,0,6.747-5.667,11.932,11.932,0,0,0,1.738-6.247,12.857,12.857,0,0,0-1.655-6.333A32.509,32.509,0,0,1,68.582,59.3a31.921,31.921,0,0,1-3.516,5.009,35.2,35.2,0,0,1-4.343,4.261A32.363,32.363,0,0,1,55.632,72m-15.89-2.483a25.562,25.562,0,0,0,18.787-7.7,25.562,25.562,0,0,0,7.7-18.787,27.807,27.807,0,0,0-.371-4.595,25.206,25.206,0,0,0-1.119-4.261,19.637,19.637,0,0,1-5.3,2.566,20.065,20.065,0,0,1-6.042.91,19.554,19.554,0,0,1-14.361-5.919A19.551,19.551,0,0,1,33.121,17.38,26.365,26.365,0,0,0,13.258,43.036a25.562,25.562,0,0,0,7.7,18.787,25.562,25.562,0,0,0,18.787,7.7M29.811,50.484a4.1,4.1,0,1,1,2.94-1.2,4,4,0,0,1-2.94,1.2m19.863,0a4.1,4.1,0,1,1,2.94-1.2,4,4,0,0,1-2.94,1.2M7.8,34.428a34.269,34.269,0,0,1,1.9-5.257,29.846,29.846,0,0,1,2.731-4.757,38.986,38.986,0,0,1,3.433-4.221,33.454,33.454,0,0,1,4.016-3.641A12.953,12.953,0,0,0,13.3,18.29a13.229,13.229,0,0,0-4.843,4.8,11.591,11.591,0,0,0-1.821,5.545A12.123,12.123,0,0,0,7.8,34.428m63.891,0a12.123,12.123,0,0,0,1.159-5.793,11.591,11.591,0,0,0-1.821-5.545,13.229,13.229,0,0,0-4.843-4.8A12.953,12.953,0,0,0,59.6,16.552a33.423,33.423,0,0,1,4.012,3.641,39.016,39.016,0,0,1,3.436,4.221,29.846,29.846,0,0,1,2.731,4.757,34.269,34.269,0,0,1,1.9,5.257M53.4,31.035a13.108,13.108,0,0,0,4.469-.745,14.108,14.108,0,0,0,3.807-2.069,23.394,23.394,0,0,0-4.138-4.757,29.936,29.936,0,0,0-5.214-3.685,25.47,25.47,0,0,0-5.959-2.4,25.861,25.861,0,0,0-6.621-.828v.828a13.176,13.176,0,0,0,3.973,9.683A13.176,13.176,0,0,0,53.4,31.035m-4.469-19.78a12.045,12.045,0,0,0-4.055-3.393,11.225,11.225,0,0,0-10.262,0,12.045,12.045,0,0,0-4.055,3.393,29.433,29.433,0,0,1,4.469-.993,33.777,33.777,0,0,1,9.435,0,29.433,29.433,0,0,1,4.469.993" transform="translate(0 0)" fill="#fefcf8"/>
  </g>
</svg>
